<svg xmlns="http://www.w3.org/2000/svg" version="1.1" xmlns:xlink="http://www.w3.org/1999/xlink" xmlns:svgjs="http://svgjs.dev/svgjs" viewBox="0 0 800 800" opacity="0.5" width="800" height="800"><g stroke-width="1.5" stroke="#7dd3fc" fill="none"><circle r="1.763157894736842" cx="0" cy="0" fill="#7dd3fc" stroke="none"></circle><circle r="1.763157894736842" cx="200" cy="0" fill="#7dd3fc" stroke="none"></circle><circle r="1.763157894736842" cx="400" cy="0" fill="#7dd3fc" stroke="none"></circle><circle r="1.763157894736842" cx="600" cy="0" fill="#7dd3fc" stroke="none"></circle><circle r="1.763157894736842" cx="800" cy="0" fill="#7dd3fc" stroke="none"></circle><circle r="1.763157894736842" cx="0" cy="100" fill="#7dd3fc" stroke="none"></circle><circle r="1.763157894736842" cx="200" cy="100" fill="#7dd3fc" stroke="none"></circle><circle r="1.763157894736842" cx="400" cy="100" fill="#7dd3fc" stroke="none"></circle><circle r="1.763157894736842" cx="600" cy="100" fill="#7dd3fc" stroke="none"></circle><circle r="1.763157894736842" cx="800" cy="100" fill="#7dd3fc" stroke="none"></circle><circle r="1.763157894736842" cx="0" cy="200" fill="#7dd3fc" stroke="none"></circle><circle r="1.763157894736842" cx="200" cy="200" fill="#7dd3fc" stroke="none"></circle><circle r="1.763157894736842" cx="400" cy="200" fill="#7dd3fc" stroke="none"></circle><circle r="1.763157894736842" cx="600" cy="200" fill="#7dd3fc" stroke="none"></circle><circle r="1.763157894736842" cx="800" cy="200" fill="#7dd3fc" stroke="none"></circle><circle r="1.763157894736842" cx="0" cy="300" fill="#7dd3fc" stroke="none"></circle><circle r="1.763157894736842" cx="200" cy="300" fill="#7dd3fc" stroke="none"></circle><circle r="1.763157894736842" cx="400" cy="300" fill="#7dd3fc" stroke="none"></circle><circle r="1.763157894736842" cx="600" cy="300" fill="#7dd3fc" stroke="none"></circle><circle r="1.763157894736842" cx="800" cy="300" fill="#7dd3fc" stroke="none"></circle><circle r="1.763157894736842" cx="0" cy="400" fill="#7dd3fc" stroke="none"></circle><circle r="1.763157894736842" cx="200" cy="400" fill="#7dd3fc" stroke="none"></circle><circle r="1.763157894736842" cx="400" cy="400" fill="#7dd3fc" stroke="none"></circle><circle r="1.763157894736842" cx="600" cy="400" fill="#7dd3fc" stroke="none"></circle><circle r="1.763157894736842" cx="800" cy="400" fill="#7dd3fc" stroke="none"></circle><circle r="1.763157894736842" cx="0" cy="500" fill="#7dd3fc" stroke="none"></circle><circle r="1.763157894736842" cx="200" cy="500" fill="#7dd3fc" stroke="none"></circle><circle r="1.763157894736842" cx="400" cy="500" fill="#7dd3fc" stroke="none"></circle><circle r="1.763157894736842" cx="600" cy="500" fill="#7dd3fc" stroke="none"></circle><circle r="1.763157894736842" cx="800" cy="500" fill="#7dd3fc" stroke="none"></circle><circle r="1.763157894736842" cx="0" cy="600" fill="#7dd3fc" stroke="none"></circle><circle r="1.763157894736842" cx="200" cy="600" fill="#7dd3fc" stroke="none"></circle><circle r="1.763157894736842" cx="400" cy="600" fill="#7dd3fc" stroke="none"></circle><circle r="1.763157894736842" cx="600" cy="600" fill="#7dd3fc" stroke="none"></circle><circle r="1.763157894736842" cx="800" cy="600" fill="#7dd3fc" stroke="none"></circle><circle r="1.763157894736842" cx="0" cy="700" fill="#7dd3fc" stroke="none"></circle><circle r="1.763157894736842" cx="200" cy="700" fill="#7dd3fc" stroke="none"></circle><circle r="1.763157894736842" cx="400" cy="700" fill="#7dd3fc" stroke="none"></circle><circle r="1.763157894736842" cx="600" cy="700" fill="#7dd3fc" stroke="none"></circle><circle r="1.763157894736842" cx="800" cy="700" fill="#7dd3fc" stroke="none"></circle><circle r="1.763157894736842" cx="0" cy="800" fill="#7dd3fc" stroke="none"></circle><circle r="1.763157894736842" cx="200" cy="800" fill="#7dd3fc" stroke="none"></circle><circle r="1.763157894736842" cx="400" cy="800" fill="#7dd3fc" stroke="none"></circle><circle r="1.763157894736842" cx="600" cy="800" fill="#7dd3fc" stroke="none"></circle><circle r="1.763157894736842" cx="800" cy="800" fill="#7dd3fc" stroke="none"></circle></g></svg>