<svg xmlns="http://www.w3.org/2000/svg" version="1.1" xmlns:xlink="http://www.w3.org/1999/xlink" xmlns:svgjs="http://svgjs.dev/svgjs" viewBox="0 0 1422 800" opacity="0.13"><defs><linearGradient x1="50%" y1="0%" x2="50%" y2="100%" id="oooscillate-grad"><stop stop-color="#7dd3fc" stop-opacity="1" offset="0%"></stop><stop stop-color="#0c4a6e" stop-opacity="1" offset="100%"></stop></linearGradient></defs><g stroke-width="1" stroke="url(#oooscillate-grad)" fill="none" stroke-linecap="round"><path d="M 0 744 Q 355.5 230 711 400 Q 1066.5 570 1422 744" opacity="1.00"></path><path d="M 0 713 Q 355.5 230 711 400 Q 1066.5 570 1422 713" opacity="0.96"></path><path d="M 0 682 Q 355.5 230 711 400 Q 1066.5 570 1422 682" opacity="0.92"></path><path d="M 0 651 Q 355.5 230 711 400 Q 1066.5 570 1422 651" opacity="0.88"></path><path d="M 0 620 Q 355.5 230 711 400 Q 1066.5 570 1422 620" opacity="0.83"></path><path d="M 0 589 Q 355.5 230 711 400 Q 1066.5 570 1422 589" opacity="0.79"></path><path d="M 0 558 Q 355.5 230 711 400 Q 1066.5 570 1422 558" opacity="0.75"></path><path d="M 0 527 Q 355.5 230 711 400 Q 1066.5 570 1422 527" opacity="0.71"></path><path d="M 0 496 Q 355.5 230 711 400 Q 1066.5 570 1422 496" opacity="0.67"></path><path d="M 0 465 Q 355.5 230 711 400 Q 1066.5 570 1422 465" opacity="0.63"></path><path d="M 0 434 Q 355.5 230 711 400 Q 1066.5 570 1422 434" opacity="0.59"></path><path d="M 0 403 Q 355.5 230 711 400 Q 1066.5 570 1422 403" opacity="0.55"></path><path d="M 0 372 Q 355.5 230 711 400 Q 1066.5 570 1422 372" opacity="0.50"></path><path d="M 0 341 Q 355.5 230 711 400 Q 1066.5 570 1422 341" opacity="0.46"></path><path d="M 0 310 Q 355.5 230 711 400 Q 1066.5 570 1422 310" opacity="0.42"></path><path d="M 0 279 Q 355.5 230 711 400 Q 1066.5 570 1422 279" opacity="0.38"></path><path d="M 0 248 Q 355.5 230 711 400 Q 1066.5 570 1422 248" opacity="0.34"></path><path d="M 0 217 Q 355.5 230 711 400 Q 1066.5 570 1422 217" opacity="0.30"></path><path d="M 0 186 Q 355.5 230 711 400 Q 1066.5 570 1422 186" opacity="0.26"></path><path d="M 0 155 Q 355.5 230 711 400 Q 1066.5 570 1422 155" opacity="0.22"></path><path d="M 0 124 Q 355.5 230 711 400 Q 1066.5 570 1422 124" opacity="0.17"></path><path d="M 0 93 Q 355.5 230 711 400 Q 1066.5 570 1422 93" opacity="0.13"></path><path d="M 0 62 Q 355.5 230 711 400 Q 1066.5 570 1422 62" opacity="0.09"></path></g></svg>