<svg xmlns="http://www.w3.org/2000/svg" version="1.1" xmlns:xlink="http://www.w3.org/1999/xlink" xmlns:svgjs="http://svgjs.dev/svgjs" viewBox="0 0 1422 800" opacity="0.48"><g stroke-width="1" stroke="#7dd3fc" fill="none" stroke-linecap="round"><line x1="120" y1="0" x2="0" y2="120" opacity="1.00"></line><line x1="240" y1="0" x2="120" y2="120" opacity="1.00"></line><line x1="360" y1="0" x2="240" y2="120" opacity="1.00"></line><line x1="480" y1="0" x2="360" y2="120" opacity="1.00"></line><line x1="480" y1="0" x2="600" y2="120" opacity="1.00"></line><line x1="720" y1="0" x2="600" y2="120" opacity="1.00"></line><line x1="840" y1="0" x2="720" y2="120" opacity="1.00"></line><line x1="960" y1="0" x2="840" y2="120" opacity="1.00"></line><line x1="960" y1="0" x2="1080" y2="120" opacity="1.00"></line><line x1="1080" y1="0" x2="1200" y2="120" opacity="1.00"></line><line x1="1200" y1="0" x2="1320" y2="120" opacity="1.00"></line><line x1="1440" y1="0" x2="1320" y2="120" opacity="1.00"></line><line x1="120" y1="120" x2="0" y2="240" opacity="0.86"></line><line x1="240" y1="120" x2="120" y2="240" opacity="0.86"></line><line x1="360" y1="120" x2="240" y2="240" opacity="0.86"></line><line x1="480" y1="120" x2="360" y2="240" opacity="0.86"></line><line x1="480" y1="120" x2="600" y2="240" opacity="0.86"></line><line x1="720" y1="120" x2="600" y2="240" opacity="0.86"></line><line x1="720" y1="120" x2="840" y2="240" opacity="0.86"></line><line x1="960" y1="120" x2="840" y2="240" opacity="0.86"></line><line x1="1080" y1="120" x2="960" y2="240" opacity="0.86"></line><line x1="1200" y1="120" x2="1080" y2="240" opacity="0.86"></line><line x1="1200" y1="120" x2="1320" y2="240" opacity="0.86"></line><line x1="1440" y1="120" x2="1320" y2="240" opacity="0.86"></line><line x1="120" y1="240" x2="0" y2="360" opacity="0.72"></line><line x1="240" y1="240" x2="120" y2="360" opacity="0.72"></line><line x1="240" y1="240" x2="360" y2="360" opacity="0.72"></line><line x1="480" y1="240" x2="360" y2="360" opacity="0.72"></line><line x1="600" y1="240" x2="480" y2="360" opacity="0.72"></line><line x1="720" y1="240" x2="600" y2="360" opacity="0.72"></line><line x1="840" y1="240" x2="720" y2="360" opacity="0.72"></line><line x1="960" y1="240" x2="840" y2="360" opacity="0.72"></line><line x1="1080" y1="240" x2="960" y2="360" opacity="0.72"></line><line x1="1200" y1="240" x2="1080" y2="360" opacity="0.72"></line><line x1="1200" y1="240" x2="1320" y2="360" opacity="0.72"></line><line x1="1440" y1="240" x2="1320" y2="360" opacity="0.72"></line><line x1="120" y1="360" x2="0" y2="480" opacity="0.57"></line><line x1="120" y1="360" x2="240" y2="480" opacity="0.57"></line><line x1="240" y1="360" x2="360" y2="480" opacity="0.57"></line><line x1="360" y1="360" x2="480" y2="480" opacity="0.57"></line><line x1="600" y1="360" x2="480" y2="480" opacity="0.57"></line><line x1="720" y1="360" x2="600" y2="480" opacity="0.57"></line><line x1="840" y1="360" x2="720" y2="480" opacity="0.57"></line><line x1="960" y1="360" x2="840" y2="480" opacity="0.57"></line><line x1="960" y1="360" x2="1080" y2="480" opacity="0.57"></line><line x1="1200" y1="360" x2="1080" y2="480" opacity="0.57"></line><line x1="1200" y1="360" x2="1320" y2="480" opacity="0.57"></line><line x1="1320" y1="360" x2="1440" y2="480" opacity="0.57"></line><line x1="120" y1="480" x2="0" y2="600" opacity="0.43"></line><line x1="240" y1="480" x2="120" y2="600" opacity="0.43"></line><line x1="240" y1="480" x2="360" y2="600" opacity="0.43"></line><line x1="360" y1="480" x2="480" y2="600" opacity="0.43"></line><line x1="600" y1="480" x2="480" y2="600" opacity="0.43"></line><line x1="720" y1="480" x2="600" y2="600" opacity="0.43"></line><line x1="840" y1="480" x2="720" y2="600" opacity="0.43"></line><line x1="960" y1="480" x2="840" y2="600" opacity="0.43"></line><line x1="1080" y1="480" x2="960" y2="600" opacity="0.43"></line><line x1="1080" y1="480" x2="1200" y2="600" opacity="0.43"></line><line x1="1200" y1="480" x2="1320" y2="600" opacity="0.43"></line><line x1="1440" y1="480" x2="1320" y2="600" opacity="0.43"></line><line x1="120" y1="600" x2="0" y2="720" opacity="0.29"></line><line x1="240" y1="600" x2="120" y2="720" opacity="0.29"></line><line x1="360" y1="600" x2="240" y2="720" opacity="0.29"></line><line x1="480" y1="600" x2="360" y2="720" opacity="0.29"></line><line x1="600" y1="600" x2="480" y2="720" opacity="0.29"></line><line x1="720" y1="600" x2="600" y2="720" opacity="0.29"></line><line x1="720" y1="600" x2="840" y2="720" opacity="0.29"></line><line x1="960" y1="600" x2="840" y2="720" opacity="0.29"></line><line x1="1080" y1="600" x2="960" y2="720" opacity="0.29"></line><line x1="1200" y1="600" x2="1080" y2="720" opacity="0.29"></line><line x1="1200" y1="600" x2="1320" y2="720" opacity="0.29"></line><line x1="1440" y1="600" x2="1320" y2="720" opacity="0.29"></line><line x1="0" y1="720" x2="120" y2="840" opacity="0.15"></line><line x1="120" y1="720" x2="240" y2="840" opacity="0.15"></line><line x1="240" y1="720" x2="360" y2="840" opacity="0.15"></line><line x1="480" y1="720" x2="360" y2="840" opacity="0.15"></line><line x1="600" y1="720" x2="480" y2="840" opacity="0.15"></line><line x1="720" y1="720" x2="600" y2="840" opacity="0.15"></line><line x1="840" y1="720" x2="720" y2="840" opacity="0.15"></line><line x1="960" y1="720" x2="840" y2="840" opacity="0.15"></line><line x1="960" y1="720" x2="1080" y2="840" opacity="0.15"></line><line x1="1200" y1="720" x2="1080" y2="840" opacity="0.15"></line><line x1="1320" y1="720" x2="1200" y2="840" opacity="0.15"></line><line x1="1320" y1="720" x2="1440" y2="840" opacity="0.15"></line></g></svg>